<svg xmlns="http://www.w3.org/2000/svg" width="40" height="40"><path d="M19.582 8.546a1.467 1.467 0 0 0-.441 2.032c2.426 3.757 2.999 6.591 2.751 9.075-1.004 4.756-3.187 5.72-5.095 5.72-1.862 0-1.363-3.065.036-3.962.836-.522 1.907-.861 2.728-.861.814 0 1.474-.658 1.474-1.469 0-.812-.66-1.47-1.474-1.47-.959 0-1.901.202-2.779.545.179-.847.245-1.762.013-2.735-.352-1.478-1.366-2.889-3.127-4.257a1.478 1.478 0 0 0-2.069.256c-.5.64-.384 1.564.258 2.062 1.435 1.115 1.909 1.94 2.071 2.618.162.679.031 1.408-.294 2.409-.416 1.348-.899 2.553-1.11 3.707-.105.568-.114 1.187-.14 1.681-1.034-1.007-1.438-2.337-1.438-4.279a1.473 1.473 0 0 0-2.947 0c0 2.653.776 5.178 2.856 6.862 1.882 1.794 6.67 1.131 6.67 4.01 0 .813 1.189 1.208 2.003 1.208.835 0 1.885-.558 1.885-1.208 0-3.267 3.443-5.252 9.111-5.244a1.47 1.47 0 1 0 .004-2.94c-.388-.001-.765.013-1.138.035.634-1.49.915-3.131.857-4.903a1.472 1.472 0 0 0-1.522-1.421 1.471 1.471 0 0 0-1.425 1.518c.077 2.32-.01 4.392-1.739 5.484-.491.311-1.063.58-1.605.58.421-1.144.739-2.352.869-3.654.083-.831.092-1.818-.003-2.585-.147-1.188-.325-2.535.126-3.55.405-.874 1.313-1.24 2.646-1.24a1.472 1.472 0 1 0 0-2.941c-1.981 0-3.482 1.042-4.333 2.301a24.87 24.87 0 0 0-1.642-2.943 1.471 1.471 0 0 0-1.501-.651 1.462 1.462 0 0 0-.536.21z" fill="#3C3C3C"/></svg>