<svg xmlns="http://www.w3.org/2000/svg" width="40" height="40"><path d="M19.583 7.847a1.468 1.468 0 0 0-.441 2.033c2.426 3.757 2.999 6.591 2.75 9.074-1.004 4.756-3.187 5.721-5.094 5.721-1.862 0-1.364-3.065.036-3.962.836-.522 1.906-.861 2.728-.861.814 0 1.474-.658 1.474-1.47 0-.811-.66-1.469-1.474-1.469-.96 0-1.901.201-2.78.545.18-.847.246-1.763.014-2.736-.352-1.477-1.367-2.888-3.128-4.256a1.474 1.474 0 0 0-2.069.255 1.468 1.468 0 0 0 .259 2.063c1.435 1.114 1.908 1.939 2.07 2.618.162.679.032 1.408-.293 2.408-.416 1.349-.899 2.553-1.111 3.708-.104.568-.113 1.187-.14 1.681-1.033-1.007-1.437-2.337-1.437-4.28a1.473 1.473 0 0 0-2.947 0c0 2.654.776 5.179 2.856 6.863 1.882 1.793 6.669 1.131 6.669 4.01 0 .812 1.19 1.208 2.004 1.208.834 0 1.885-.558 1.885-1.208 0-3.267 3.443-5.253 9.11-5.244a1.471 1.471 0 1 0 .005-2.94c-.388-.001-.766.012-1.138.034.634-1.49.915-3.13.857-4.903a1.473 1.473 0 0 0-1.522-1.421 1.473 1.473 0 0 0-1.425 1.519c.076 2.32-.011 4.392-1.739 5.484-.492.31-1.063.58-1.605.58.421-1.145.738-2.353.868-3.655.083-.83.092-1.818-.002-2.584-.148-1.188-.325-2.536.126-3.551.405-.874 1.313-1.24 2.645-1.24a1.47 1.47 0 1 0 0-2.94c-1.98 0-3.481 1.042-4.332 2.301-.445-.95-.987-1.93-1.642-2.943a1.474 1.474 0 0 0-2.037-.442z" fill="#B2B2B2"/></svg>